<?xml version="1.0" encoding="UTF-8"?><svg id="Layer_1" xmlns="http://www.w3.org/2000/svg" viewBox="0 0 4000 4000"><defs><style>.cls-1{fill:#82b4f2;}.cls-2{fill:#3369bc;}.cls-3{fill:#fdfdfd;}.cls-4{fill:#6f81ae;}.cls-5{fill:#fff;font-family:Fava-Black, Fava;font-size:657.61px;font-weight:800;letter-spacing:0em;stroke:#3369bc;stroke-miterlimit:10;stroke-width:50px;}.cls-6{fill:#dce9fb;}.cls-7{fill:#010101;}</style></defs><path class="cls-2" d="m2417.99,2319.8c34.23-12.44,57.86-38.77,82.85-63.3,6.53-6.41,10.33-20.04,21.64-15.39,11.58,4.76,16.72,16.51,15,30.07-3.83,30.29,9.32,52.52,34,68.52,21.03,13.64,30.33,34.28,36.18,57.25.68,2.69-.08,5.74.56,8.44,5.88,24.72,7.53,24.96,31.4,14.75,12.2-5.21,22.6-14.62,36.47-15.92,10.85,29.64,19.26,33.39,44.87,17.75,23.94-14.62,47.94-29.39,70.4-46.13,73.35-54.65,142.39-114.25,207.41-178.79,14.8-14.69,34.54-28.62,57.89-32.05,3.21,8.36-1.7,13.42-4.77,18.56-9.01,15.06-19.39,29.33-27.79,44.71-25.25,46.26-45.37,95.59-84.25,133.43-6.66,6.49-9.46,17.08-13.59,25.99-4.56,9.84,3.99,7.91,8.78,9.25-1,.98-2.12,1.86-2.97,2.95-5.24,6.68-14.44,14.54-9.88,22.08,6.14,10.16,16.31,1.81,24.38-1.18,58.08-21.5,116.12-43.14,174.11-64.88,4.16-1.56,8.03-2.42,15.81.54-35.11,37.21-69.26,73.38-103.4,109.56-2.84-1.49-3.71.37-4.37,2.57-56.88,52.05-121.06,92.83-191.7,123.44-39.49,17.12-79.3,33.5-118.97,50.21-25.57,1.09-48.17,14.09-73,18.32-5.03.86-6.73,6.06-7.5,11.54-3.7,26.1-10.69,51.55-13.48,77.96-4.1,38.8-53.66,86.5-88.6,93.25-7.72-.47-15.89.51-23.1-1.65-40.53-12.16-80.47-26.43-121.33-37.27-27.92-7.41-46.97-19.9-50.82-50.68-.97-7.79-7.66-14.88-11.75-22.27-7.47-13.51-18.53-24.97-23-40.2,26.59,4.72,50.61,17.28,76.24,25,59.76,17.99,99.51,4.88,127.8-48.27,22.06-41.44,37.82-84.79,48-130.37.91-4.07-.37-9.3,4.46-10.88,22.42-7.31,7.78-14.54-.1-21.18-6.42-5.41-13.33-10.34-20.47-14.75-39.8-24.54-85.56-36.99-125.64-60.36-25.86-15.08-51.63-20.92-80.44-18.66-5.58.44-11.22.19-16.83.25.22-8.68,6.47-13.62,11.75-19.24,17.53-18.63,39.51-31.4,59.9-46.33,10.31-7.55,24.51-11.62,27.86-26.64Z"/><path class="cls-1" d="m2935.04,2396.95c-4.79-1.34-13.34.58-8.78-9.25,4.13-8.91,6.93-19.51,13.59-25.99,38.88-37.84,59-87.16,84.25-133.43,8.39-15.38,18.77-29.65,27.79-44.71,3.08-5.14,7.98-10.2,4.77-18.56-23.35,3.43-43.09,17.36-57.89,32.05-65.02,64.54-134.06,124.14-207.41,178.79-22.46,16.73-46.46,31.51-70.4,46.13-25.61,15.65-34.03,11.89-44.87-17.75,10.78-9.5,9.77-22.42,9.85-34.86.15-21.91-.1-43.83-.14-65.74q-.05-28.84,29-31.08c44.94,1.17,77.29-25.19,107.47-52.69,17.06-15.54,36.71-28.08,51.65-46.73,10.76-13.44,9.72-23-.05-32.67-39.63-39.17-28.81-94.23,4.09-131.22,15.02-16.89,35.93-24.48,59.29-19.92,26.3,5.13,36.84,24.87,45.48,47.77,6.55,17.37-1.24,36.57,9.41,53.15,3.93,6.11-5.11,8.68-7.53,13.28-2.15,4.1-2.71,7.92.1,11.82,3.9,5.41,7.92,1.23,10.81-.71,35.41-23.89,69.19-49.32,82.63-92.81,1.25-4.05,2.28-8.38,4.51-11.88,13.02-20.4,24.3-39.89,1.45-61.98-8.9-8.61-3.48-21.04-.32-32.11,6.03-21.11,13.46-41.21,29.58-57.04,7.45-7.32,14.5-12.72,26.11-7.67,11,4.79,16.67,10.95,16.58,23.79-.24,32.52-6.61,63.97-13.95,95.37-4.88,20.85-.96,43.88-15.54,62.3-.3-8.66-1.21-19.58-10.53-20.49-9.3-.91-6.82,11.45-10.36,17.5-.69,1.18-.86,2.67-1.53,3.87-12.22,21.67-11.14,23.58,15.24,26.69-18.45,71.19-51.68,135.37-88.85,198.53-28.61,48.62-60.47,94.36-95.49,138.25Zm-32.12-328.08c10.84,5.36,19.25,7.57,26.65-.76,2.54-2.86,1.73-7.09-1.8-9.06-10.73-6-16.63,2.15-24.86,9.82Z"/><path class="cls-6" d="m3119.38,2060.17c-26.37-3.11-27.46-5.02-15.24-26.69.68-1.2.84-2.68,1.53-3.87,3.54-6.05,1.06-18.41,10.36-17.5,9.33.92,10.23,11.83,10.53,20.49.52,9.95.42,19.74-7.19,27.56Z"/><path class="cls-6" d="m3028.72,2468.59c.67-2.2,1.54-4.06,4.37-2.57-1.46.86-2.92,1.71-4.37,2.57Z"/><path class="cls-4" d="m2052.45,2419.2c30.24-44.06,56.06-90.22,77.04-139.73,12.98-30.63,34.94-57.5,48.49-88.52,7.07-16.18,14.96-32.05,21.18-48.54,5.56-14.72,10.54-28.31,29.44-30.37,15.45-1.68,10.47-14.52,9.86-23.38-5.99-87.26-36.09-169.68-51.75-255.03-4.06-22.13-11.43-43.65-17.28-65.46,1.52-1.65,3.04-3.3,4.56-4.94,11.58,31.89,21.14,64.72,35.29,95.43,14.71,31.91,22.88,65.7,34.82,98.31,20.03,54.7,40.6,109.28,67.85,161.1,5.11,9.73,17.18,18.68,14.56,29.19-3.08,12.39-19.34,7.97-29.28,12.59-20.11,9.36-21.2,29.6-27.83,44.82-21.76,49.95-47.59,97.82-71.16,146.8-10.25,21.3-18.51,43.45-30.79,63.98-30.53,51.07-49.78,107.78-78.37,159.99-26.32,48.08-77.05,62.03-124.37,27.71-8.75-6.35-18.66-9.52-27.86-14.47-19.35-10.42-26.69-28.95-19.64-49.7.39-1.14,3.77-1.26,5.76-1.87.27,19.38,8.19,38.85,24.1,45.26,13.16,5.3,15.53-16.91,21.77-26.53,29.05-44.78,55.93-90.97,83.58-136.65Z"/><text class="cls-5" transform="translate(1063.15 2831.06) scale(.89 1)"><tspan x="0" y="0">Learn 2</tspan><tspan x="0" y="467.6">Dive</tspan></text><path class="cls-7" d="m2637.55,2672.09c.78-5.47,2.47-10.68,7.5-11.54,24.83-4.24,47.43-17.23,73-18.33m-947.39-319c-16.19-24.13-244.78-197.33-259.57-221.9-35.97-59.78-55.38-125.83-76.03-191.55-13.25-42.19-27.23-84.15-40.67-126.28-14.9-46.69-29.82-93.38-44.24-140.21-14.31-46.47-35.05-88.89-64.86-128.14-22.88-30.12-36.72-66.24-41.7-105.13-8.07-63.02-5.67-125.71-.42-188.81,3.4-40.88,6.96-81.64,13.52-122.1,3.02-18.61-6.55-28.3-20.08-39.62-46.43-38.87-91.28-79.65-136.46-119.99-69.62-62.17-138.14-125.6-208.87-186.47-35.09-30.2-64.7-67.65-108.65-87-3.41-1.5-6.24-4.75-5.53-10.23,3.63-27.95,11.56-55.26,12.13-83.68.23-11.45,7.4-8.97,12.52-4.19,24.14,22.55,50.66,42.3,75.37,64.22,22.52,19.98,43.25,41.83,67.12,60.63,34.81,27.41,66.89,58.4,99.12,88.94,37.45,35.49,77.8,67.64,115.72,102.65,41.22,38.07,82.75,75.98,125.15,112.8,16.51,14.34,31.9,29.76,48.24,44.18,7.73,6.83,10.97,14.26,9.07,23.92-9.87,50.22-8.8,101.86-20.56,151.96-4.57,19.46-4.91,40.28-4.54,60.43.58,31.22-7.79,61.71-1.21,93.78,8.22,40.05,20.5,77.73,42.52,111.88,14.27,22.14,30.39,43.08,45.88,64.42,10.85,14.94,9.09,32.95,12.46,49.68,8.69,43.06,26.99,82.97,40.22,124.54,21.46,67.44,42.63,134.97,63.76,202.51,15.33,49.01,37.18,94.76,62.32,139.65,18.56,33.13,42.15,61.62,65.02,91.16,4.5,5.81,10.25,6.24,15.56,9.04,58.96,31.08,119.52,58.82,180.68,85.21,11.84,5.11,24.95,7.25,37.47,10.77,10.89,10.81,18.52,18.96,27.04-4.28,8.9-24.3,21.55-49.23,4.09-71.12-31.63-39.66-63.67-79-93.03-120.32-35.29-49.66-64-103-85.39-160.35-14.21-38.09-22.25-77.58-25.45-117.43-2.28-28.44-6.25-58.08,3.69-86.49,7.17,1.99,14.75,3.1,21.43,6.16,15.43,7.08,12.04-2.17,9.99-10.72,0-5.57-.33-11.17.06-16.71.46-6.59,2.28-12.37,10.44-13.34,7.69-.91,11.35,2.34,13.24,9.77,1.15,4.52,5.46,8.2,6.79,12.72,5.29,18.06,13.78,12.98,23.16,3.71,12.15-4.06,29.66,6.04,35.91-13.61,1.92-11.47,7.13-20.24,19.18-23.41,27.68,29.75,44.32,65.56,60.63,102.44,27.5,62.2,57.94,123.16,88.92,183.73,29.4,57.48,49.11,119.74,86.3,173.44,5.05,7.29,6.78,16.36-.12,28.24-17.4,29.95-36.39,59.05-48,92.64-16.66,48.22-37.81,94.9-57.55,142.02-5.14,12.26-7.01,25.1-13.85,37.5-21.09,38.21-39.68,78.07-45.6,122.26-1.99.6-5.37.72-5.76,1.86-7.05,20.75.28,39.28,19.64,49.7,9.2,4.95,19.1,8.12,27.86,14.47,47.32,34.32,98.05,20.37,124.37-27.71,28.59-52.21,47.84-108.93,78.37-159.99,12.28-20.54,20.54-42.68,30.79-63.98,23.58-48.98,49.41-96.85,71.16-146.8,6.63-15.22,7.72-35.46,27.83-44.82,9.93-4.63,26.2-.21,29.28-12.59,2.61-10.51-9.45-19.47-14.56-29.19-27.25-51.82-47.83-106.4-67.85-161.1-11.94-32.61-20.11-66.4-34.82-98.31-14.16-30.7-23.71-63.53-35.29-95.43-11.28-35.54-21.57-71.47-41.89-103.36-.11-1.09-.2-1.99-.31-3.08,1.81-4.13,1.28-7.29-3.59-8.64-.28-1.39-.55-2.79-.83-4.18,1.2-3.04-.54-4.15-3.11-4.7-.31-1.33-.7-2.63-1.15-3.92.84-3.48,2.34-7.18-2.86-8.67-1.09-24.3-14.47-44.49-23.46-65.83-25.48-60.49-51.04-121.02-82.8-178.68-18.3-33.22-35.76-66.89-59.38-96.83-4.53-14.9-10.61-28.72-25.17-36.66-2.01-4.83-3.6-8.65-5.6-13.47,1.43-3.82.37-6.51-4.41-7.5-1.81-3.71-2.45-5.03-4.26-8.74,4.96-8.6-14.14-15.71-4.27-20.63,12.01-5.98,10.22,10.78,15.95,16.22.51.48,1.24.74,1.71,1.25,48.43,52.97,97.08,106.06,135.78,166.62,19.92,31.16,43.9,60.19,55.89,96.59,7.32,22.23,20.31,42.59,30.76,63.79-1.58-42.81-12.94-84.42-6.11-127.4,20.6,42.84,34.55,87.66,46,132.93,16.83,66.57,30.92,133.6,56.34,197.95,18.2,46.07,37.13,91.64,56.87,137.07,23.52,54.13,53.3,103.95,87.02,151.87.66,9.53,10.58,12.86,13.82,20.66,14.8,28.69,42.39,43.41,66.79,61.81,23.06,17.39,46.16,11.11,69.06,1.56,11.43-4.77,21.27-13.26,32.54-18.57,9.95-4.68,16-11.76,17.51-22.02,5.14-35.08,13.57-69.79-13.34-101.88-18.6-22.17-29.89-50.18-52.17-69.91-2.18-3.96-4.37-7.91-6.55-11.87-8.22-12.87-16.44-25.75-24.66-38.62-14.55-27.55-28.24-55.61-43.92-82.5-12.51-21.46-22.96-44.56-41.8-61.84l.07.07c-.15-3.5.91-7.62-4.33-8.53-.32-1.36-.7-2.71-1.15-4.03,1.41-2.99-.05-4.32-2.83-4.91-.05-1.33-.46-2.54-1.24-3.63,1.11-2.6-.16-3.36-1.78-3.85-.98-1.78-1.57-2.85-2.55-4.64,1.47-6.68-3.63-9.18-7.73-12.31l-.05-.53c1.01-3.06-.25-4.63-3.3-5.03-31.25-57.37-58.47-117.11-99.21-168.9-7.76-27.18-25.3-48.83-40.66-71.68-27.5-40.91-51.44-85.01-83.78-121.68-53.07-60.15-111.24-115.86-168.09-172.6-37.16-37.09-77.8-70.85-113.25-109.44-38.6-42.01-80.25-80.77-120.17-121.34-63.46-64.48-129.24-126.64-191.78-192.06-9.24-9.66-17.35-23.12-33.45-24.28-4.21-10.57-26.02-7.82-20.73-23.8,4.37-13.21,2.11-26.02,3.74-38.91,1.05-.85,2.75-1.53,3.04-2.59,2.54-9.4-2.49-24.07,10.57-26.39,15.34-2.73,30.69-.53,42.71,13.96,11.49,13.85,26.49,24.74,39.39,37.49,39.87,39.4,78.33,80.23,117.84,119.92,42.28,42.46,84.9,84.62,127.49,126.78,30.55,30.24,59.19,62.58,91.12,91.05,25.13,22.4,45.95,48.37,70.82,70.72,20.75,18.65,40.54,38.32,60.19,58.12,25.46,25.66,52.05,50.42,76.58,77.04,12.6,13.67,26.66,23.14,44.99,27.85,66.92,17.2,129.72,45.88,193.89,70.78,61.36,23.81,123.24,46.62,183.79,72.1,64.23,27.03,130.15,49.31,194.29,76.07,29.59,12.34,61.69,23.26,83.91,49.55,57.1,67.56,44.73,171.06-14.25,222.81-52.68,46.23-113.64,52.39-179.71,28.71-58.08-20.81-114.96-44.36-172.06-67.52-4.4-1.79-9.45-2.67-14.76,1.74,34.31,54.19,66.88,109.51,100.73,164.1,33.57,54.13,71.88,106.59,90.9,168.45,16.67,54.21-6.42,139.48-67.9,166.44-4.57,2-10.31,2.99-13.05,10.55,22.21,3.55,43.58,8.14,65.19,10.08,19.47,1.75,33.97,8.44,40.2,27.88,4.54,14.17,11.14,24.32,26.46,31.18,18.25,8.17,6.05,18.11-3.65,25.67q-29.02,2.23-29,31.08c.04,21.91.29,43.83.14,65.74-.09,12.44.93,25.36-9.85,34.86-13.87,1.3-24.27,10.71-36.47,15.92-23.88,10.2-25.52,9.97-31.4-14.75-.64-2.71.12-5.76-.56-8.44-5.85-22.97-15.15-43.61-36.18-57.25-24.67-16-37.83-38.23-34-68.52,1.72-13.56-3.43-25.31-15-30.07-11.32-4.65-15.11,8.98-21.64,15.39-24.99,24.53-48.62,50.86-82.86,63.29-18.48-35.55-53.16-45.26-87.62-56.19-8.68-2.75-8.27-1.39-11.74,6.09-26.29,56.63-49.23,114.79-80.51,169.16-18.83,32.73-34.8,66.98-50.24,101.45-14.9,33.25-37.71,62.12-53.73,93.75-21.28,42.02-54.98,54.16-95.05,59.82-34.43,4.87-163.95-153.98-194.7-166.84m-431.95-377.89,853.01-837.4c10.18,19.86,17.16,36.46,26.67,51.47,38.69,61.09,78.21,121.66,117.22,182.55,3.87,6.03,9.64,7.7,15.55,10.04,33.91,13.44,67.14,28.42,101.43,41.15,27.18,10.08,54.17,21.41,81.13,32.46,27.92,11.44,56.91,20.68,83.75,34.23,55.87,28.19,122.86-4.09,128.85-65.67,3.74-38.42-3.97-64.39-31.11-76.39-24.83-10.98-49.81-22.05-75.07-32.08-65.23-25.91-132.37-46.65-197.38-73.47-81.93-33.8-166.03-62.33-251.02-104.29Zm-279.18,851.71c.08-10.24,5.98-15.71,11.01-22.1,4.64-5.88,8.6-12.03,3.74-21.7-14.65-29.15-25.3-60.48-41.54-88.63-36.6-63.46-62.67-131.97-96.94-196.58-16.14-30.43-35.78-52.9-66.09-67.33-8.58-4.09-12.49-3.45-13.11,7.5-.73,12.82,3.01,24.78,4.37,37.15,7.11,64.96,37.62,120.38,70.95,174.56,37.87,61.57,89.82,113.03,127.61,177.13Zm562.26,84.85c17.49,30.76,22.39,63.26,41.78,89.77,8.5,11.62,17.03,7.33,25.06.82,11.1-8.99,12.25-36.57,5.23-49.07-15.04-26.78-39.86-35.47-72.07-41.52Z"/><path class="cls-6" d="m1923.39,1236.32c1.89,4.06,3.78,8.11,5.66,12.16-.52,18.56,8.16,30.75,25.58,36.88,23.61,29.93,41.08,63.6,59.38,96.83,31.75,57.65,57.31,118.18,82.8,178.68,8.99,21.34,22.36,41.53,23.45,65.82.95,2.89,1.91,5.78,2.87,8.67.45,1.29.83,2.59,1.14,3.92,1.04,1.56,2.07,3.13,3.11,4.7.28,1.39.55,2.79.82,4.18-.35,3.52.71,6.46,3.59,8.65.28,1.23.51,2.47.71,3.71,2.77,27.53,14.55,52.53,22.74,78.49,3.17,10.07,2.4,22.98,14.19,29.19,5.85,21.8,13.22,43.32,17.28,65.45,15.66,85.35,45.77,167.77,51.75,255.03.61,8.86,5.59,21.7-9.86,23.38-18.9,2.06-23.88,15.65-29.44,30.37-6.23,16.49-14.12,32.36-21.18,48.54-13.55,31.02-35.51,57.89-48.49,88.52-20.98,49.51-46.8,95.67-77.04,139.73-3.72-8.72-3.36-17.24-1.29-26.61,8.86-40.18,25.36-77.54,40.6-115.44,16.3-40.54,33.95-80.59,46.43-122.57,3.57-12.01,5.71-21.92-10.3-29-12.56-5.55-20.07-17.42-21.94-33.45-3.52-30.12-10.95-60.07-23.9-87.37-15.75-33.24-33.11-66.47-40.39-101.95-6.97-34.01-48.65-46.96-43.63-88.03,3.61-29.57-23.2-51.36-36.51-76.56-22.09-41.81-56.97-70.88-96.5-95.14-5.76-3.54-10.49-3.74-14.51,2.28-24.99-12.48-44.44-34.12-71.46-43.26-6.01-20.23-14.84-25.38-29.02-5.81-1.89,2.6-5.69,4.07-8.87,5.44-31.73,13.71-63.75,26.86-97.67,33.99-10.78,2.27-11.65,6.23-9.37,15.73,18.35,76.63,16.77,155.77,28.88,233.36,9.34,59.82,18.53,119.04,39.84,175.87-24.09-12.14-40.3-34.53-63.09-48.42-7.73-4.71-14.86-10.46-21.98-16.1-20.14-15.97-25.77-36.74-26.02-62.36-.61-61.71-16.52-120.88-35.31-179.38-14.42-44.89-26.97-90.3-37.08-136.48-6.78-30.96-22.65-59.11-37.14-87.21-23.6-45.77-54.22-87.15-83.96-129.02-13.11-18.45-19.18-38.12-18.85-61.3,1.07-75.02-1.99-150.19,1.61-225.05,1.51-31.36-1.53-62.65,1.81-94.11,2.29-21.58-10.55-41.96-18.5-62.26-18.52-47.33-32.69-96.11-48.48-144.35-5.91-18.06-12.83-35.88-20.73-53.15-4.61-10.08-2.05-14.42,6.62-20.31,29.86-20.3,62.53-35.57,94.29-52.18,33.03-17.28,66.04-34.12,96.32-56.02,7.24-5.23,13.86-12.3,23.74-13-1.63,12.88.63,25.7-3.74,38.91-5.29,15.98,16.51,13.24,20.73,23.81,43.41,77.48,96.54,148.92,139.71,226.6,25.62,46.11,55.76,89.78,74.24,139.63,12.46,33.6,24.16,67.49,36.43,101.16,7.24,19.85,16.95,38.34,31.53,54.42-2.18-47.04-10.25-92.54-22.01-138.27,14.6,1.23,22.34,10.05,28.06,19.43,15.16,24.87,27.77,51.39,43.91,75.57,14.16,21.21,29.04,42.48,49.85,58.31,1.55,2.73,3.1,5.46,4.65,8.18-1.2,4,.13,6.85,3.92,8.58Z"/><path class="cls-3" d="m1986.27,2163.46c-37.79-64.09-89.74-115.56-127.61-177.13-33.33-54.18-63.84-109.6-70.95-174.56-1.35-12.38-5.1-24.34-4.37-37.15.62-10.95,4.53-11.59,13.11-7.5,30.31,14.43,49.96,36.91,66.09,67.33,34.27,64.61,60.34,133.12,96.94,196.58,16.24,28.15,26.89,59.48,41.54,88.63,4.86,9.67.9,15.82-3.74,21.7-5.04,6.39-10.94,11.86-11.01,22.1Z"/><path class="cls-4" d="m2404.93,2055.91c44.47-.96,51.48-41.43,71.85-67.92,19.35-25.17,34.83-52.58,48.54-81.09,22.27,19.72,33.56,47.73,52.17,69.9,26.91,32.08,18.49,66.8,13.34,101.88-1.5,10.26-7.56,17.34-17.51,22.02-11.27,5.31-21.11,13.8-32.54,18.57-22.9,9.56-46,15.84-69.06-1.56-24.4-18.4-51.99-33.12-66.79-61.81Z"/><path class="cls-4" d="m1702.85,2060.68c-21.31-56.83-30.5-116.05-39.84-175.87-12.11-77.59-10.53-156.73-28.88-233.36-2.28-9.5-1.41-13.47,9.37-15.73,33.93-7.13,65.94-20.28,97.67-33.99,3.18-1.37,6.98-2.84,8.87-5.44,14.18-19.57,23.02-14.43,29.02,5.8-7.25,7.24-2.5,9.11,4.18,13.11,14.55,8.72,25.36,21.19,28.95,38.59-8.54-1.14-11.84-11.64-21.33-12.06-1.59,5.76-3.13,11.34-4.67,16.91,22.12,4.98,9.53,21.42,10.98,33.23-9.39,9.27-17.88,14.35-23.17-3.71-1.32-4.52-5.63-8.2-6.79-12.72-1.89-7.42-5.55-10.68-13.24-9.77-8.15.97-9.97,6.75-10.44,13.34-.39,5.54-.07,11.14-.06,16.7-10.4,1.99-22.04-4.43-31.42,4.57-9.94,28.41-5.97,58.04-3.69,86.49,3.19,39.86,11.24,79.34,25.45,117.43,21.4,57.36,50.1,110.7,85.39,160.35,29.36,41.32,61.41,80.67,93.03,120.32,17.46,21.89,4.81,46.82-4.09,71.12-8.51,23.24-16.14,15.08-27.04,4.28-7.05-35.55-31.12-60.75-54.38-85.62-36.47-39.01-75.54-75.46-118.35-107.66-2.19-1.65-3.7-4.19-5.52-6.32Z"/><path class="cls-1" d="m3140.29,1730.67c-.11,18.99-23.3,46.06-46.1,53.06-55.14,16.92-100.34-27.39-95.22-80.41,3.18-32.85,32.04-49.24,71.06-41.87,28.3,5.35,70.4,46.83,70.27,69.22Z"/><path class="cls-2" d="m2548.53,2248.31c32.21,6.05,57.03,14.74,72.07,41.52,7.02,12.5,5.87,40.08-5.23,49.07-8.04,6.51-16.56,10.8-25.06-.82-19.39-26.51-24.29-59.01-41.78-89.77Z"/><path class="cls-1" d="m2475.96,1873.65c-27.04-48.34-44.36-101.03-67.33-151.19-1.33-2.9-.22-6.9-.25-10.39,18.84,17.27,29.29,40.38,41.8,61.84,15.68,26.9,29.37,54.95,43.92,82.5-6.71,5.06-8.68,15.1-18.15,17.25Z"/><path class="cls-4" d="m1914.82,1219.55c-20.81-15.84-35.69-37.1-49.85-58.31-16.14-24.18-28.75-50.69-43.91-75.57-5.72-9.38-13.46-18.21-28.06-19.43,11.76,45.74,19.84,91.23,22.01,138.27-14.59-16.08-24.3-34.57-31.53-54.42-12.28-33.67-23.97-67.56-36.43-101.16-18.48-49.85-48.62-93.52-74.24-139.63-43.17-77.68-96.3-149.13-139.71-226.6,16.09,1.16,24.21,14.61,33.44,24.27,62.54,65.42,128.32,127.58,191.78,192.06,39.92,40.57,81.58,79.32,120.17,121.34,35.45,38.59,76.09,72.36,113.25,109.44,56.86,56.74,115.02,112.45,168.09,172.6,32.35,36.66,56.29,80.77,83.78,121.68,15.36,22.85,32.9,44.5,40.66,71.68-2.39,1-4.99,1.19-4.34,5.35,4.45,28.46,6.96,57.51,19.15,84,7.91,17.2,13.43,37.74,10.01,53.02-8.68,38.83,3.25,74.79,12.43,109.13,20.99,78.56,39.4,158.13,68.49,234.41,6.74,17.67,8.65,35.54,1.1,53.56-33.72-47.92-63.51-97.73-87.02-151.87-19.74-45.43-38.67-91-56.87-137.07-25.42-64.35-39.5-131.38-56.34-197.95-11.45-45.27-25.4-90.09-46-132.93-6.83,42.98,4.54,84.58,6.11,127.4-10.44-21.2-23.43-41.56-30.76-63.79-11.99-36.4-35.97-65.43-55.89-96.59-38.7-60.56-87.35-113.64-135.78-166.62-.47-.51-1.2-.77-1.71-1.25-5.72-5.44-3.94-22.2-15.95-16.22-10.08,5.02,10.08,12.34,3.91,21.19Z"/><path class="cls-4" d="m2265.46,1311.75c84.99,41.96,169.1,70.49,251.02,104.29,65.01,26.83,132.15,47.56,197.38,73.47,25.26,10.03,50.25,21.11,75.07,32.08,27.14,12,34.84,37.97,31.11,76.39-5.99,61.58-72.97,93.86-128.85,65.67-26.84-13.54-55.83-22.78-83.75-34.23-26.96-11.05-53.95-22.38-81.13-32.46-34.29-12.72-67.52-27.7-101.43-41.15-5.91-2.34-11.68-4.01-15.55-10.04-39-60.89-78.53-121.46-117.22-182.55-9.5-15.01-16.48-31.61-26.67-51.47Z"/><path class="cls-4" d="m2475.96,1873.65c9.47-2.15,11.44-12.19,18.15-17.25,8.22,12.87,16.44,25.75,24.66,38.62-21.73,7.81-34.84-1.62-42.81-21.37Z"/><path class="cls-3" d="m2052.45,2419.2c-27.65,45.68-54.53,91.88-83.58,136.65-6.24,9.62-8.62,31.83-21.77,26.53-15.92-6.41-23.83-25.88-24.1-45.26,5.91-44.18,24.5-84.04,45.6-122.25,6.84-12.4,8.72-25.24,13.85-37.5,19.74-47.12,40.89-93.8,57.55-142.02,11.61-33.6,30.6-62.7,48-92.64,6.9-11.88,5.17-20.96.12-28.24-37.19-53.7-56.9-115.97-86.3-173.44-30.98-60.57-61.42-121.54-88.92-183.73-16.31-36.88-32.94-72.69-60.63-102.44-.58-3.17-1.15-6.33-1.73-9.5,4.01-6.02,8.74-5.82,14.51-2.28,39.54,24.26,74.42,53.32,96.5,95.14,13.31,25.2,40.12,46.99,36.51,76.56-5.02,41.07,36.66,54.03,43.63,88.03,7.27,35.48,24.63,68.71,40.39,101.95,12.94,27.3,20.38,57.25,23.9,87.37,1.87,16.03,9.39,27.9,21.94,33.45,16.01,7.08,13.87,16.99,10.3,29-12.48,41.99-30.13,82.04-46.43,122.57-15.24,37.89-31.74,75.26-40.6,115.44-2.07,9.37-2.43,17.89,1.29,26.61Z"/><path class="cls-6" d="m2391.11,2035.25c7.55-18.01,5.65-35.88-1.1-53.56-29.1-76.28-47.5-155.85-68.49-234.41-9.18-34.35-21.11-70.3-12.43-109.13,3.42-15.28-2.1-35.82-10.01-53.02-12.18-26.49-14.7-55.53-19.15-84-.65-4.16,1.95-4.35,4.34-5.35,40.74,51.79,67.96,111.53,99.21,168.9,1.1,1.68,2.2,3.35,3.3,5.03,0,0,.05.53.05.52-.63,6.11.34,11.2,7.75,12.2.34,1.45.68,2.9,1.02,4.35,1.1,1.42,2.19,2.84,3.29,4.26.78,1.08,1.19,2.29,1.24,3.63.94,1.64,1.88,3.27,2.83,4.9.45,1.32.83,2.67,1.15,4.03-.43,3.8-.08,7.2,4.33,8.53,0,0-.07-.07-.07-.07.03,3.49-1.08,7.5.25,10.39,22.97,50.17,40.28,102.85,67.33,151.19,7.97,19.75,21.09,29.18,42.81,21.38,2.18,3.96,4.37,7.91,6.55,11.87-13.72,28.51-29.2,55.92-48.54,81.09-20.36,26.49-27.38,66.96-71.85,67.92-3.25-7.8-13.17-11.13-13.82-20.66Z"/><path class="cls-2" d="m1869.39,2441.14c.24-9.47-4.53-19.63,3.87-27.98,3.93,10.05,5.05,19.7-3.87,27.98Z"/><path class="cls-6" d="m2902.92,2068.87c8.23-7.68,14.13-15.82,24.86-9.82,3.52,1.97,4.34,6.2,1.8,9.06-7.4,8.32-15.81,6.12-26.65.76Z"/><path class="cls-1" d="m1850.52,1645.36c.58,3.17,1.15,6.33,1.73,9.5-12.05,3.17-17.26,11.95-19.18,23.4-10.36-5.25-17.73-13.06-20.88-24.46-3.59-17.4-14.4-29.88-28.95-38.59-6.69-4.01-11.43-5.88-4.18-13.11,27.01,9.15,46.46,30.78,71.45,43.27Z"/><path class="cls-2" d="m1812.2,1653.79c3.15,11.41,10.52,19.21,20.88,24.46-6.25,19.66-23.77,9.56-35.91,13.62-1.45-11.81,11.14-28.25-10.98-33.23,1.54-5.57,3.08-11.15,4.67-16.91,9.49.42,12.79,10.91,21.33,12.06Z"/><path class="cls-1" d="m2173.99,1763.24c-1.52,1.65-3.03,3.29-4.56,4.94-11.8-6.2-11.02-19.11-14.2-29.18-8.18-25.96-19.96-50.96-22.74-78.49,20.05,31.73,30.28,67.42,41.49,102.73Z"/><path class="cls-1" d="m1954.63,1285.36c-17.42-6.13-26.1-18.32-25.58-36.88,14.86,7.91,21.01,21.85,25.58,36.88Z"/><path class="cls-2" d="m1712.05,1700.29c9.38-9,21.02-2.58,31.42-4.57,2.05,8.56,5.44,17.81-9.99,10.73-6.68-3.06-14.26-4.17-21.43-6.16Z"/><path class="cls-1" d="m2394.59,1682.43c-7.41-1-8.39-6.09-7.75-12.2,4.07,3.12,9.14,5.6,7.75,12.2Z"/><path class="cls-1" d="m2123.12,1635.36c-.96-2.89-1.91-5.79-2.87-8.67,5.2,1.49,3.7,5.19,2.87,8.67Z"/><path class="cls-1" d="m2131.79,1656.8c-2.88-2.18-3.94-5.13-3.59-8.65,4.88,1.36,5.41,4.52,3.59,8.65Z"/><path class="cls-4" d="m1923.39,1236.32c-3.79-1.73-5.12-4.58-3.92-8.58,5.2,1.08,5.97,4.19,3.92,8.58Z"/><path class="cls-1" d="m2408.45,1712.13c-4.41-1.34-4.76-4.74-4.33-8.53,5.24.92,4.18,5.03,4.33,8.53Z"/><path class="cls-1" d="m2398.9,1691.04c-1.1-1.42-2.19-2.84-3.29-4.26,2.16.6,4.73.88,3.29,4.26Z"/><path class="cls-1" d="m2386.78,1669.71c-1.1-1.68-2.2-3.36-3.3-5.03,3.05.4,4.31,1.97,3.3,5.03Z"/><path class="cls-1" d="m2402.96,1699.57c-.94-1.63-1.89-3.27-2.83-4.9,2.77.58,4.24,1.91,2.83,4.9Z"/><path class="cls-1" d="m2127.37,1643.97c-1.04-1.57-2.08-3.13-3.11-4.7,2.57.55,4.31,1.65,3.11,4.7Z"/><path class="cls-4" d="m2455.06,2617.24c.45-4.93-1.26-11.12,6.8-11.58-.31,5.01.06,10.42-6.8,11.58Z"/></svg>